<svg width="50" height="50" viewBox="0 0 50 50" fill="none" xmlns="http://www.w3.org/2000/svg">
<rect width="50" height="50" rx="5" fill="white"/>
<path d="M45.208 23.1291L26.8704 4.79242C25.8149 3.73635 24.1021 3.73635 23.0454 4.79242L19.2375 8.60032L24.068 13.4308C25.1905 13.0515 26.4778 13.306 27.3726 14.2008C28.2716 15.1013 28.5243 16.3995 28.1358 17.5257L32.7911 22.1811C33.9173 21.7931 35.2169 22.0441 36.1164 22.9452C37.3737 24.2019 37.3737 26.2387 36.1164 27.4963C34.8589 28.754 32.8221 28.754 31.5639 27.4963C30.6182 26.5496 30.3846 25.1608 30.8633 23.9958L26.5219 19.6544L26.5214 31.0792C26.8361 31.2348 27.1236 31.4404 27.3726 31.6879C28.6298 32.9446 28.6298 34.9816 27.3726 36.2402C26.115 37.4972 24.0772 37.4972 22.8214 36.2402C21.5642 34.9816 21.5642 32.9448 22.8214 31.6881C23.1227 31.3866 23.4808 31.1479 23.8749 30.9857V19.4544C23.4802 19.2933 23.122 19.0544 22.8214 18.752C21.8689 17.8008 21.6399 16.4031 22.128 15.2335L17.3662 10.4713L4.79242 23.0442C3.73586 24.1013 3.73586 25.8143 4.79242 26.8705L23.1304 45.2075C24.1861 46.2637 25.8986 46.2637 26.9557 45.2075L45.2078 26.9557C46.2641 25.8991 46.2641 24.1851 45.2078 23.1291" fill="#DE4C36"/>
</svg>
