<svg width="70" height="70" viewBox="0 0 70 70" fill="none" xmlns="http://www.w3.org/2000/svg">
<path d="M0 5C0 2.23858 2.23858 0 5 0H65C67.7614 0 70 2.23858 70 5V65C70 67.7614 67.7614 70 65 70H5C2.23858 70 0 67.7614 0 65V5Z" fill="white"/>
<path d="M29.8111 33.5415C29.8111 33.5415 35.3946 33.1311 35.3946 26.6479C35.3946 20.1642 30.8266 17 25.0404 17H6V53.2318H25.0404C25.0404 53.2318 36.6638 53.5954 36.6638 42.5379C36.6638 42.5379 37.1706 33.5415 29.8111 33.5415ZM25.0404 23.4398C25.0404 23.4398 27.6285 23.4398 27.6285 27.2096C27.6285 30.9789 26.1064 31.5254 24.3799 31.5254H14.3894V23.4398H25.0404ZM24.5023 46.7923H14.3894V37.1098H25.0404C25.0404 37.1098 28.8979 37.0597 28.8979 42.0856C28.8979 46.3235 26.0167 46.7603 24.5023 46.7923ZM52.1657 26.2184C38.0942 26.2184 38.1067 40.1398 38.1067 40.1398C38.1067 40.1398 37.1412 53.9897 52.1657 53.9897C52.1657 53.9897 64.6859 54.698 64.6859 44.3551H58.2469C58.2469 44.3551 58.4617 48.2501 52.3804 48.2501C52.3804 48.2501 45.9404 48.6774 45.9404 41.9465H64.9006C64.9006 41.9465 66.9752 26.2184 52.1657 26.2184ZM45.8696 37.1098C45.8696 37.1098 46.6559 31.5252 52.3087 31.5252C57.9604 31.5252 57.8896 37.1098 57.8896 37.1098H45.8696ZM59.3895 23.5962H44.2933V19.1345H59.3895V23.5962Z" fill="#061E41"/>
</svg>
