<svg width="50" height="50" viewBox="0 0 50 50" fill="none" xmlns="http://www.w3.org/2000/svg">
<g clip-path="url(#clip0_227_148)">
<path d="M50 50H0V0H50V50Z" fill="#55DD00"/>
<path d="M29.8643 4.51428C30.1929 6.42857 30.5429 8.34286 30.9857 10.2286C31.5072 12.4857 32.1214 14.7214 32.7143 16.9643C33.5643 20.1714 34.4357 23.3929 35.2929 26.5786C35.3429 26.7643 35.4143 26.8357 35.6071 26.8357C36.1071 26.8357 36.6 26.8357 37.0929 26.8357C37.1248 26.8408 37.1574 26.8394 37.1888 26.8317C37.2202 26.8239 37.2498 26.81 37.2757 26.7907C37.3017 26.7714 37.3235 26.7471 37.3399 26.7193C37.3564 26.6915 37.3671 26.6606 37.3714 26.6286C38.2476 23.3429 39.1286 20.0595 40.0143 16.7786C40.4643 15.0786 40.9143 13.3857 41.3286 11.6786C41.9429 9.15 42.4214 6.59286 42.8286 4.02857C43.0429 2.68571 43.2357 1.35 43.4357 0.00714111H29.2214C29.2214 0.0428554 29.2214 0.0857125 29.2214 0.142855C29.4429 1.59286 29.6072 3.06428 29.8643 4.51428Z" fill="#AAFE89"/>
<path d="M21.1215 6.42857C22.1834 8.80952 23.3381 11.1286 24.5857 13.3857C26.2197 16.4893 28.072 19.473 30.1286 22.3143C30.9428 23.4601 31.8766 24.5161 32.9143 25.4643C33.1643 25.6857 33.4357 25.8857 33.7 26.1L33.7643 26.05C33.7215 25.9571 33.7 25.8571 33.65 25.7714C33.05 24.6071 32.4643 23.4357 31.8429 22.2857C30.9572 20.65 30.1714 18.9714 29.4214 17.2857C27.8143 13.6143 26.3429 9.89286 25.1357 6.07857C24.5489 4.29757 24.0718 2.48226 23.7072 0.642857L23.5715 0.128571C23.5691 0.0857474 23.5691 0.042824 23.5715 0L18.6572 0C19.3248 2.19869 20.1483 4.34699 21.1215 6.42857V6.42857Z" fill="#AAFE89"/>
<path d="M42.3143 23.8714C41.9143 24.3714 41.4786 24.8357 41.0572 25.3L40.9643 25.4214V25.4643C41.0662 25.4067 41.164 25.3423 41.2572 25.2714C41.8786 24.6786 42.5286 24.1072 43.1072 23.4714C45.5357 20.7929 47.7857 17.9714 49.9643 15.0857V12.7143C49.2 14.1429 48.3214 15.4929 47.4214 16.8286C45.8286 19.2429 44.1286 21.6 42.3143 23.8714Z" fill="#AAFE89"/>
<path d="M46.5 9.28571C45.3286 12.5 43.9572 15.6286 42.5 18.7214C41.8429 20.15 41.1786 21.5214 40.4929 22.9071C40.1643 23.5786 39.7786 24.2214 39.4072 24.8857C39.2572 25.1714 39.1286 25.4714 38.9929 25.7643C38.9664 25.8236 38.9472 25.886 38.9357 25.95L39.0143 25.9929C43.1141 21.0648 46.7892 15.7984 50 10.25V0H49.1286V0.0928571C48.5021 3.22311 47.623 6.29745 46.5 9.28571V9.28571Z" fill="#AAFE89"/>
<path d="M15.6072 2.26429C16.1 3.40714 16.5857 4.55714 17.1429 5.71429C18.1371 7.89332 19.2556 10.0135 20.4929 12.0643C21.5332 13.7236 22.6684 15.3215 23.8929 16.85C25.25 18.5786 26.6238 20.2857 28.0143 21.9714C28.9896 23.1896 30.0545 24.3332 31.2 25.3929C31.3857 25.5571 31.5857 25.6929 31.7786 25.8429C31.801 25.8531 31.8254 25.8584 31.85 25.8584C31.8747 25.8584 31.899 25.8531 31.9214 25.8429L31.8072 25.6786C30.3786 23.8357 28.9072 22.0071 27.5214 20.1429C25.3656 17.3257 23.3833 14.3797 21.5857 11.3214C19.7605 8.31741 18.2706 5.12208 17.1429 1.79286C16.9643 1.23571 16.8143 0.678571 16.65 0.114286C16.6459 0.0762995 16.6459 0.0379863 16.65 0L14.6857 0C14.7019 0.0240565 14.7139 0.0506009 14.7214 0.0785714C15 0.807143 15.3 1.54286 15.6072 2.26429Z" fill="#AAFE89"/>
<path d="M13.0786 37.5143C13.2297 37.6464 13.395 37.7613 13.5714 37.8572C16.55 39.6786 19.55 41.4643 22.6214 43.1286C24.4725 44.1833 26.3964 45.1047 28.3786 45.8857C28.9654 46.0891 29.5641 46.256 30.1714 46.3857C30.3911 46.4252 30.616 46.4252 30.8357 46.3857C31.2857 46.3357 31.55 45.9786 31.55 45.4714C31.5437 45.0456 31.4689 44.6235 31.3286 44.2214C30.8908 42.9307 30.3311 41.6846 29.6571 40.5C28.4429 38.2143 27.1929 35.9429 25.9571 33.6714C25.0143 31.9429 24.0857 30.2143 23.1429 28.4857C23.066 28.3362 22.9673 28.199 22.85 28.0786L12.3143 17.4357L3.25 8.25001L0 4.95001V24.7143L6.01429 30.6L13.0786 37.5143Z" fill="white"/>
<path d="M36.5143 36.0643H33.1786C32.8714 36.0643 32.8714 36.0643 32.8 35.7714C32.3929 33.9643 31.9929 32.15 31.5857 30.3429C31.5357 30.1143 31.5857 30.1 31.7857 30.1H36.4072L41.1643 30C41.4214 30 41.4286 30 41.3786 30.2643L40.2214 35.75C40.1572 36.05 40.15 36.05 39.85 36.05H36.5143V36.0643Z" fill="#AAFE89"/>
<path d="M11.6286 21.4643C7.74762 17.5357 3.87143 13.6095 0 9.68573V14.7357L1.96429 16.6357L11.2929 25.6357C13.1929 27.4714 15.0857 29.3072 17.0071 31.1286C17.1853 31.2842 17.4027 31.388 17.6357 31.4286C17.8777 31.469 18.1255 31.4581 18.363 31.3966C18.6005 31.3351 18.8224 31.2243 19.0143 31.0714C19.1733 30.9609 19.3058 30.8164 19.4022 30.6484C19.4985 30.4804 19.5563 30.2931 19.5714 30.1C19.579 29.8901 19.5386 29.6813 19.4532 29.4894C19.3678 29.2975 19.2396 29.1277 19.0786 28.9929C16.5833 26.4833 14.1 23.9738 11.6286 21.4643Z" fill="#55DD00"/>
</g>
<defs>
<clipPath id="clip0_227_148">
<rect width="50" height="50" rx="5" fill="white"/>
</clipPath>
</defs>
</svg>
